<svg width="24" height="42" viewBox="0 0 24 42" fill="none" xmlns="http://www.w3.org/2000/svg">
<path d="M12 34.125C11.265 34.125 10.6875 33.5475 10.6875 32.8125V9.1875C10.6875 8.4525 11.265 7.875 12 7.875C12.735 7.875 13.3125 8.4525 13.3125 9.1875V32.8125C13.3125 33.5475 12.735 34.125 12 34.125Z" fill="black"/>
<path d="M12 36.75C11.8279 36.7521 11.6572 36.7182 11.499 36.6503C11.3407 36.5825 11.1984 36.4824 11.0813 36.3563L1.89375 27.1688C1.36875 26.6438 1.36875 25.83 1.89375 25.305C2.41875 24.78 3.2325 24.78 3.7575 25.305L12.0263 33.5738L20.295 25.305C20.82 24.78 21.6338 24.78 22.1588 25.305C22.6838 25.83 22.6838 26.6438 22.1588 27.1688L12.9713 36.3563C12.7088 36.6188 12.3675 36.75 12.0525 36.75H12Z" fill="black"/>
</svg>
