<svg width="44" height="43" viewBox="0 0 44 43" fill="none" xmlns="http://www.w3.org/2000/svg">
<path fill-rule="evenodd" clip-rule="evenodd" d="M22 43C33.8745 43 43.5 33.3745 43.5 21.5C43.5 9.62555 33.8745 0 22 0C10.1256 0 0.5 9.62555 0.5 21.5C0.5 33.3745 10.1256 43 22 43ZM34.8011 23.1125H28.2458C27.9524 24.247 27.3556 25.2802 26.5193 26.101L29.7959 31.777C31.1652 30.7389 32.3133 29.4377 33.1728 27.9498C34.0323 26.4619 34.5859 24.8173 34.8011 23.1125ZM27.0052 33.3938L23.7265 27.7178C22.5969 28.0316 21.4031 28.0316 20.2736 27.7178L16.9948 33.3938C18.5795 34.0593 20.2812 34.4014 22 34.4C23.7738 34.4 25.4658 34.0409 27.0052 33.3938ZM14.2041 31.7792L17.4807 26.1032C16.6433 25.282 16.0457 24.248 15.7521 23.1125H9.1989C9.41407 24.8173 9.96766 26.4619 10.8272 27.9498C11.6867 29.4377 12.8348 30.7411 14.2041 31.7792ZM34.8011 19.8853H28.2458C27.9524 18.7509 27.3556 17.7177 26.5193 16.8969L29.7959 11.2208C31.1652 12.2589 32.3133 13.5601 33.1728 15.048C34.0323 16.5359 34.5859 18.1806 34.8011 19.8853ZM27.0052 9.60405C25.4203 8.93929 23.7186 8.59793 22 8.6C20.2262 8.6 18.5342 8.95905 16.9948 9.6062L20.2736 15.2822C21.4031 14.9684 22.5969 14.9684 23.7265 15.2822L27.0052 9.60405ZM17.4807 16.899L14.2041 11.223C12.8348 12.2611 11.6867 13.5623 10.8272 15.0502C9.96766 16.5381 9.41407 18.1827 9.1989 19.8875H15.7543C16.051 18.7373 16.6572 17.7096 17.4807 16.899Z" fill="#3C3332"/>
</svg>
