<svg width="65" height="64" viewBox="0 0 65 64" fill="none" xmlns="http://www.w3.org/2000/svg">
<path d="M57.1044 4.04C56.3933 1.68 54.4022 0 52.0556 0H12.9444C10.5978 0 8.64222 1.68 7.89556 4.04L0.5 28V60C0.5 62.2 2.1 64 4.05556 64H7.61111C9.56667 64 11.1667 62.2 11.1667 60V56H53.8333V60C53.8333 62.2 55.4333 64 57.3889 64H60.9444C62.9 64 64.5 62.2 64.5 60V28L57.1044 4.04ZM16.5 44C13.5489 44 11.1667 41.32 11.1667 38C11.1667 34.68 13.5489 32 16.5 32C19.4511 32 21.8333 34.68 21.8333 38C21.8333 41.32 19.4511 44 16.5 44ZM48.5 44C45.5489 44 43.1667 41.32 43.1667 38C43.1667 34.68 45.5489 32 48.5 32C51.4511 32 53.8333 34.68 53.8333 38C53.8333 41.32 51.4511 44 48.5 44ZM10.4911 20L14.1889 8H50.7756L54.4733 20H10.4911Z" fill="#E74025"/>
</svg>
