<svg width="18" height="420" viewBox="0 0 18 420" fill="none" xmlns="http://www.w3.org/2000/svg">
<path d="M17.5261 12.226V25.955C17.5261 29.585 14.6491 32.554 11.1311 32.554H6.86814C3.34914 32.554 0.473145 29.585 0.473145 25.955V12.226C0.473145 8.59801 3.34914 5.62701 6.86814 5.62701H11.1311C14.6491 5.62701 17.5261 8.59801 17.5261 12.226ZM13.8731 12.226C13.8731 10.668 12.6441 9.40001 11.1321 9.40001H6.86915C5.35815 9.40001 4.12814 10.668 4.12814 12.226V25.955C4.12814 27.513 5.35815 28.783 6.86915 28.783H11.1321C12.6441 28.783 13.8731 27.513 13.8731 25.955V12.226Z" fill="black"/>
<path d="M10.8273 38.182V27.076C10.8273 25.78 10.0063 24.72 9.00031 24.72C7.99531 24.72 7.17432 25.78 7.17432 27.076V38.181L10.8273 38.182Z" fill="black"/>
<path d="M7.17334 0V11.105C7.17334 12.403 7.99434 13.463 8.99934 13.463C10.0053 13.463 10.8263 12.402 10.8263 11.105V0H7.17334Z" fill="black"/>
<path d="M17.5261 50.408V64.138C17.5261 67.768 14.6491 70.737 11.1311 70.737H6.86814C3.34914 70.737 0.473145 67.768 0.473145 64.138V50.408C0.473145 46.78 3.34914 43.809 6.86814 43.809H11.1311C14.6491 43.809 17.5261 46.78 17.5261 50.408ZM13.8731 50.408C13.8731 48.85 12.6441 47.582 11.1321 47.582H6.86915C5.35815 47.582 4.12814 48.85 4.12814 50.408V64.138C4.12814 65.696 5.35815 66.966 6.86915 66.966H11.1321C12.6441 66.966 13.8731 65.696 13.8731 64.138V50.408Z" fill="black"/>
<path d="M10.8273 76.364V65.258C10.8273 63.962 10.0063 62.902 9.00031 62.902C7.99531 62.902 7.17432 63.963 7.17432 65.258V76.363L10.8273 76.364Z" fill="black"/>
<path d="M7.17334 38.182V49.288C7.17334 50.586 7.99434 51.646 8.99934 51.646C10.0053 51.646 10.8263 50.586 10.8263 49.288V38.182H7.17334Z" fill="black"/>
<path d="M17.5261 88.59V102.319C17.5261 105.949 14.6491 108.918 11.1311 108.918H6.86814C3.34914 108.918 0.473145 105.949 0.473145 102.319V88.59C0.473145 84.962 3.34914 81.991 6.86814 81.991H11.1311C14.6491 81.991 17.5261 84.962 17.5261 88.59ZM13.8731 88.59C13.8731 87.032 12.6441 85.764 11.1321 85.764H6.86915C5.35815 85.764 4.12814 87.032 4.12814 88.59V102.319C4.12814 103.877 5.35815 105.147 6.86915 105.147H11.1321C12.6441 105.147 13.8731 103.877 13.8731 102.319V88.59Z" fill="black"/>
<path d="M10.8273 114.545V103.44C10.8273 102.144 10.0063 101.084 9.00031 101.084C7.99531 101.084 7.17432 102.144 7.17432 103.44V114.545H10.8273Z" fill="black"/>
<path d="M7.17334 76.364V87.469C7.17334 88.767 7.99434 89.827 8.99934 89.827C10.0053 89.827 10.8263 88.767 10.8263 87.469V76.364H7.17334Z" fill="black"/>
<path d="M17.5261 126.771V140.501C17.5261 144.131 14.6491 147.1 11.1311 147.1H6.86814C3.34914 147.1 0.473145 144.131 0.473145 140.501V126.771C0.473145 123.143 3.34914 120.172 6.86814 120.172H11.1311C14.6491 120.173 17.5261 123.144 17.5261 126.771ZM13.8731 126.771C13.8731 125.213 12.6441 123.945 11.1321 123.945H6.86915C5.35815 123.945 4.12814 125.213 4.12814 126.771V140.501C4.12814 142.059 5.35815 143.329 6.86915 143.329H11.1321C12.6441 143.329 13.8731 142.059 13.8731 140.501V126.771Z" fill="black"/>
<path d="M10.8273 152.727V141.622C10.8273 140.326 10.0063 139.265 9.00031 139.265C7.99531 139.265 7.17432 140.325 7.17432 141.622V152.727H10.8273Z" fill="black"/>
<path d="M7.17334 114.545V125.65C7.17334 126.948 7.99434 128.008 8.99934 128.008C10.0053 128.008 10.8263 126.948 10.8263 125.65V114.545H7.17334Z" fill="black"/>
<path d="M17.5261 164.953V178.683C17.5261 182.313 14.6491 185.282 11.1311 185.282H6.86814C3.34914 185.282 0.473145 182.313 0.473145 178.683V164.953C0.473145 161.325 3.34914 158.354 6.86814 158.354H11.1311C14.6491 158.355 17.5261 161.325 17.5261 164.953ZM13.8731 164.953C13.8731 163.395 12.6441 162.127 11.1321 162.127H6.86915C5.35815 162.127 4.12814 163.395 4.12814 164.953V178.683C4.12814 180.241 5.35815 181.511 6.86915 181.511H11.1321C12.6441 181.511 13.8731 180.241 13.8731 178.683V164.953Z" fill="black"/>
<path d="M10.8273 190.909V179.804C10.8273 178.508 10.0063 177.448 9.00031 177.448C7.99531 177.448 7.17432 178.509 7.17432 179.804V190.909H10.8273Z" fill="black"/>
<path d="M7.17334 152.727V163.832C7.17334 165.13 7.99434 166.19 8.99934 166.19C10.0053 166.19 10.8263 165.13 10.8263 163.832V152.727H7.17334Z" fill="black"/>
<path d="M17.5261 203.135V216.865C17.5261 220.495 14.6491 223.464 11.1311 223.464H6.86814C3.34914 223.464 0.473145 220.495 0.473145 216.865V203.135C0.473145 199.507 3.34914 196.536 6.86814 196.536H11.1311C14.6491 196.536 17.5261 199.507 17.5261 203.135ZM13.8731 203.135C13.8731 201.577 12.6441 200.309 11.1321 200.309H6.86915C5.35815 200.309 4.12814 201.577 4.12814 203.135V216.865C4.12814 218.423 5.35815 219.692 6.86915 219.692H11.1321C12.6441 219.692 13.8731 218.422 13.8731 216.865V203.135Z" fill="black"/>
<path d="M10.8273 229.091V217.986C10.8273 216.69 10.0063 215.63 9.00031 215.63C7.99531 215.63 7.17432 216.691 7.17432 217.986V229.091H10.8273Z" fill="black"/>
<path d="M7.17334 190.909V202.014C7.17334 203.312 7.99434 204.372 8.99934 204.372C10.0053 204.372 10.8263 203.312 10.8263 202.014V190.909H7.17334Z" fill="black"/>
<path d="M17.5261 241.317V255.046C17.5261 258.676 14.6491 261.645 11.1311 261.645H6.86814C3.34914 261.645 0.473145 258.676 0.473145 255.046V241.317C0.473145 237.689 3.34914 234.717 6.86814 234.717H11.1311C14.6491 234.718 17.5261 237.689 17.5261 241.317ZM13.8731 241.317C13.8731 239.758 12.6441 238.491 11.1321 238.491H6.86915C5.35815 238.491 4.12814 239.759 4.12814 241.317V255.046C4.12814 256.604 5.35815 257.873 6.86915 257.873H11.1321C12.6441 257.873 13.8731 256.603 13.8731 255.046V241.317Z" fill="black"/>
<path d="M10.8273 267.272V256.167C10.8273 254.871 10.0063 253.812 9.00031 253.812C7.99531 253.812 7.17432 254.872 7.17432 256.167V267.272H10.8273Z" fill="black"/>
<path d="M7.17334 229.091V240.196C7.17334 241.494 7.99434 242.554 8.99934 242.554C10.0053 242.554 10.8263 241.493 10.8263 240.196V229.091H7.17334Z" fill="black"/>
<path d="M17.5261 279.499V293.228C17.5261 296.858 14.6491 299.827 11.1311 299.827H6.86814C3.34914 299.827 0.473145 296.858 0.473145 293.228V279.499C0.473145 275.871 3.34914 272.9 6.86814 272.9H11.1311C14.6491 272.9 17.5261 275.871 17.5261 279.499ZM13.8731 279.499C13.8731 277.94 12.6441 276.673 11.1321 276.673H6.86915C5.35815 276.673 4.12814 277.94 4.12814 279.499V293.228C4.12814 294.786 5.35815 296.056 6.86915 296.056H11.1321C12.6441 296.056 13.8731 294.785 13.8731 293.228V279.499Z" fill="black"/>
<path d="M10.8273 305.455V294.348C10.8273 293.052 10.0063 291.993 9.00031 291.993C7.99531 291.993 7.17432 293.053 7.17432 294.348V305.455H10.8273Z" fill="black"/>
<path d="M7.17334 267.272V278.377C7.17334 279.675 7.99434 280.735 8.99934 280.735C10.0053 280.735 10.8263 279.675 10.8263 278.377V267.272H7.17334Z" fill="black"/>
<path d="M17.5261 317.681V331.41C17.5261 335.04 14.6491 338.009 11.1311 338.009H6.86814C3.34914 338.009 0.473145 335.04 0.473145 331.41V317.681C0.473145 314.053 3.34914 311.082 6.86814 311.082H11.1311C14.6491 311.082 17.5261 314.053 17.5261 317.681ZM13.8731 317.681C13.8731 316.123 12.6441 314.855 11.1321 314.855H6.86915C5.35815 314.855 4.12814 316.123 4.12814 317.681V331.41C4.12814 332.969 5.35815 334.238 6.86915 334.238H11.1321C12.6441 334.238 13.8731 332.968 13.8731 331.41V317.681Z" fill="black"/>
<path d="M10.8273 343.637V332.532C10.8273 331.236 10.0063 330.175 9.00031 330.175C7.99531 330.175 7.17432 331.236 7.17432 332.532V343.637H10.8273Z" fill="black"/>
<path d="M7.17334 305.455V316.56C7.17334 317.858 7.99434 318.918 8.99934 318.918C10.0053 318.918 10.8263 317.858 10.8263 316.56V305.455H7.17334Z" fill="black"/>
<path d="M17.5261 355.862V369.591C17.5261 373.221 14.6491 376.191 11.1311 376.191H6.86814C3.34914 376.191 0.473145 373.221 0.473145 369.591V355.862C0.473145 352.234 3.34914 349.263 6.86814 349.263H11.1311C14.6491 349.264 17.5261 352.234 17.5261 355.862ZM13.8731 355.862C13.8731 354.304 12.6441 353.037 11.1321 353.037H6.86915C5.35815 353.037 4.12814 354.305 4.12814 355.862V369.591C4.12814 371.15 5.35815 372.419 6.86915 372.419H11.1321C12.6441 372.419 13.8731 371.149 13.8731 369.591V355.862Z" fill="black"/>
<path d="M10.8273 381.818V370.713C10.8273 369.417 10.0063 368.357 9.00031 368.357C7.99531 368.357 7.17432 369.418 7.17432 370.713V381.818H10.8273Z" fill="black"/>
<path d="M7.17334 343.637V354.742C7.17334 356.04 7.99434 357.099 8.99934 357.099C10.0053 357.099 10.8263 356.039 10.8263 354.742V343.637H7.17334Z" fill="black"/>
<path d="M17.5261 394.044V407.773C17.5261 411.404 14.6491 414.373 11.1311 414.373H6.86814C3.34914 414.373 0.473145 411.404 0.473145 407.773V394.044C0.473145 390.416 3.34914 387.445 6.86814 387.445H11.1311C14.6491 387.445 17.5261 390.416 17.5261 394.044ZM13.8731 394.044C13.8731 392.486 12.6441 391.219 11.1321 391.219H6.86915C5.35815 391.219 4.12814 392.486 4.12814 394.044V407.773C4.12814 409.332 5.35815 410.601 6.86915 410.601H11.1321C12.6441 410.601 13.8731 409.331 13.8731 407.773V394.044Z" fill="black"/>
<path d="M10.8273 420V408.895C10.8273 407.599 10.0063 406.539 9.00031 406.539C7.99531 406.539 7.17432 407.6 7.17432 408.895V420H10.8273Z" fill="black"/>
<path d="M7.17334 381.818V392.923C7.17334 394.221 7.99434 395.281 8.99934 395.281C10.0053 395.281 10.8263 394.221 10.8263 392.923V381.818H7.17334Z" fill="black"/>
</svg>
